<svg id="Layer_1" data-name="Layer 1" xmlns="http://www.w3.org/2000/svg" viewBox="0 0 180 180"><defs><style>.cls-1{fill:#8b96a1;}</style></defs><title>nav-home-icon-01-01</title><path class="cls-1" d="M165.34,55.24,135.49,25.91a4.43,4.43,0,0,0-4.25-3.16H48.76a4.44,4.44,0,0,0-4.25,3.16L14.66,55.24a4.27,4.27,0,0,0-.19,1.28A22.27,22.27,0,0,0,26.31,76.17V152.8a4.45,4.45,0,0,0,4.45,4.45H149.24a4.45,4.45,0,0,0,4.45-4.45V76.17a22.25,22.25,0,0,0,11.84-19.65,4.27,4.27,0,0,0-.19-1.28ZM103.7,148.36H77V114.29H103.7Zm39.62-69.62,1,0,.25,0h.22v69.67H112.59V109.85a4.45,4.45,0,0,0-4.45-4.45H72.6a4.45,4.45,0,0,0-4.45,4.45v38.51H35.2V78.69h.22l.25,0,1,0ZM36.68,69.85h-.83l-.4,0-.25,0-.36,0-.26,0-.35-.06-.26,0-.34-.08-.25-.06-.37-.1-.21-.06a13.36,13.36,0,0,1-9.43-12.14l28.69-25.5h75.88l28.69,25.5a13.35,13.35,0,0,1-9.43,12.14h0l-.21.06-.37.1-.25.06-.34.08-.26,0-.35.06-.26,0-.36,0-.25,0-.4,0H36.68Zm110.52-.57"/></svg>